<svg width="100" height="35" viewBox="0 0 100 35" fill="none" xmlns="http://www.w3.org/2000/svg">
<path d="M5.75334 24.7932C6.17593 25.9146 6.761 26.8735 7.50864 27.6698C8.25629 28.4662 9.14204 29.0757 10.1659 29.4983C11.1898 29.9209 12.3031 30.1321 13.5058 30.1321C14.676 30.1321 15.773 29.9127 16.797 29.4738C17.8209 29.0349 18.7148 28.4174 19.4786 27.6211C20.2424 26.8246 20.8357 25.874 21.2583 24.7688C21.6809 23.6636 21.8921 22.4285 21.8921 21.0632V0H27.0116V34.1301H21.9409V30.9609C20.8032 32.1635 19.4623 33.0899 17.9183 33.7401C16.3743 34.3902 14.7085 34.7152 12.9207 34.7152C11.1004 34.7152 9.40204 34.3982 7.82551 33.7644C6.24908 33.1306 4.88378 32.2287 3.72994 31.0584C2.5761 29.8882 1.66587 28.4825 0.999563 26.8409C0.333152 25.1995 0 23.3711 0 21.3557V0H5.11951V21.0632C5.11951 22.4285 5.33075 23.6717 5.75334 24.7932Z" fill="white"/>
<path d="M35.8363 0V12.4331C36.974 11.2954 38.2905 10.3935 39.7857 9.7271C41.2809 9.06069 42.9062 8.72754 44.6614 8.72754C46.4817 8.72754 48.1881 9.06878 49.7809 9.75138C51.3736 10.434 52.755 11.3604 53.9252 12.5306C55.0955 13.7009 56.0219 15.0822 56.7045 16.675C57.3871 18.2678 57.7283 19.958 57.7283 21.7458C57.7283 23.5335 57.3871 25.2156 56.7045 26.7921C56.0219 28.3686 55.0955 29.742 53.9252 30.912C52.755 32.0823 51.3736 33.0087 49.7809 33.6913C48.1881 34.3739 46.4816 34.7151 44.6614 34.7151C42.9061 34.7151 41.2728 34.3819 39.7613 33.7155C38.2498 33.0492 36.9252 32.1472 35.7876 31.0095V34.13H30.9119V0H35.8363ZM36.397 25.11C36.8358 26.1503 37.4453 27.0604 38.2254 27.8405C39.0056 28.6206 39.9157 29.2383 40.9558 29.6933C41.9961 30.1484 43.1174 30.3759 44.3201 30.3759C45.4904 30.3759 46.5955 30.1484 47.6356 29.6933C48.6757 29.2383 49.5776 28.6207 50.3417 27.8405C51.1055 27.0605 51.715 26.1503 52.17 25.11C52.6251 24.0699 52.8526 22.9485 52.8526 21.7458C52.8526 20.5431 52.6251 19.4135 52.17 18.3571C51.715 17.3007 51.1055 16.3825 50.3417 15.6024C49.5777 14.8223 48.6758 14.2128 47.6356 13.774C46.5953 13.3352 45.4903 13.1157 44.3201 13.1157C43.15 13.1157 42.0448 13.3351 41.0047 13.774C39.9646 14.2129 39.0544 14.8223 38.2742 15.6024C37.4942 16.3825 36.8766 17.3007 36.4215 18.3571C35.9664 19.4135 35.7389 20.5431 35.7389 21.7458C35.7388 22.9485 35.9582 24.0699 36.397 25.11Z" fill="white"/>
<path d="M60.5069 16.7238C61.157 15.1636 62.051 13.7903 63.1886 12.6039C64.3261 11.4175 65.6752 10.483 67.2355 9.80036C68.7957 9.11776 70.486 8.77652 72.3062 8.77652C74.094 8.77652 75.7518 9.10158 77.2795 9.75159C78.8072 10.4017 80.1236 11.3037 81.2288 12.4577C82.334 13.6115 83.1955 14.9768 83.8129 16.5533C84.4305 18.1298 84.7393 19.8444 84.7393 21.6973V23.3063H64.5051C64.6677 24.3139 64.9927 25.2484 65.4803 26.1097C65.9679 26.971 66.5773 27.7187 67.3086 28.3525C68.04 28.9865 68.8689 29.4822 69.7953 29.8396C70.7217 30.1972 71.7049 30.376 72.7451 30.376C75.7031 30.376 78.0922 29.157 79.9125 26.7191L83.4718 29.352C82.2366 31.0098 80.7089 32.31 78.8887 33.2526C77.0683 34.1952 75.0205 34.6665 72.7452 34.6665C70.8924 34.6665 69.1616 34.3414 67.5525 33.6914C65.9435 33.0414 64.5459 32.1311 63.3595 30.9609C62.173 29.7906 61.2385 28.4174 60.5559 26.8409C59.8733 25.2645 59.532 23.5498 59.532 21.697C59.5318 19.9418 59.8569 18.2841 60.5069 16.7238ZM67.3574 14.7978C65.9759 15.9518 65.0577 17.4877 64.6026 19.4054H79.7662C79.3436 17.4877 78.4416 15.9518 77.0601 14.7978C75.6786 13.644 74.0615 13.067 72.2088 13.067C70.356 13.067 68.7389 13.644 67.3574 14.7978Z" fill="white"/>
<path d="M93.9542 15.3585C92.914 16.4962 92.3939 18.0401 92.3939 19.9905V34.1302H87.4694V9.26394H92.345V12.3357C92.9627 11.328 93.7672 10.5316 94.7586 9.94654C95.7499 9.36137 96.9283 9.06878 98.2936 9.06878H100V13.652H97.9522C96.327 13.6521 94.9943 14.2209 93.9542 15.3585Z" fill="white"/>
</svg>
